<svg width="542" height="713" viewBox="0 0 542 713" fill="none" xmlns="http://www.w3.org/2000/svg">
<g filter="url(#filter0_ddddii)">
<path d="M124 321C124 309.954 132.954 301 144 301H170.263C181.309 301 190.263 309.954 190.263 321V341.169C190.263 352.214 181.309 361.169 170.263 361.169H144C132.954 361.169 124 352.214 124 341.169V321Z" fill="#DADEE2"/>
<path d="M124 321C124 309.954 132.954 301 144 301H170.263C181.309 301 190.263 309.954 190.263 321V341.169C190.263 352.214 181.309 361.169 170.263 361.169H144C132.954 361.169 124 352.214 124 341.169V321Z" stroke="white" stroke-opacity="0.2" stroke-width="2"/>
</g>
<g filter="url(#filter1_d)">
<path d="M150.752 337.832C150.752 339.632 149.799 342.578 147.544 342.578C145.289 342.578 144.337 339.632 144.337 337.832C144.337 336.032 145.289 333.086 147.544 333.086C149.799 333.086 150.752 336.032 150.752 337.832ZM176.437 333.482C176.437 336.23 176.157 339.141 174.908 341.665C171.595 348.263 162.489 348.108 155.969 348.108C149.344 348.108 139.696 348.34 136.253 341.665C134.977 339.167 134.487 336.23 134.487 333.482C134.487 329.873 135.702 326.462 138.114 323.697C137.66 322.337 137.441 320.907 137.441 319.494C137.441 317.642 137.869 316.712 138.717 315.032C142.676 315.032 145.211 315.808 148.226 318.133C150.76 317.539 153.365 317.272 155.978 317.272C158.337 317.272 160.715 317.522 163.004 318.064C165.976 315.765 168.51 315.032 172.426 315.032C173.282 316.712 173.702 317.642 173.702 319.494C173.702 320.907 173.474 322.311 173.029 323.646C175.432 326.437 176.437 329.873 176.437 333.482ZM170.817 337.832C170.817 334.051 168.484 330.717 164.394 330.717C162.742 330.717 161.16 331.01 159.5 331.234C158.198 331.432 156.895 331.51 155.558 331.51C154.23 331.51 152.928 331.432 151.617 331.234C149.982 331.01 148.383 330.717 146.723 330.717C142.633 330.717 140.299 334.051 140.299 337.832C140.299 345.395 147.326 346.557 153.443 346.557H157.656C163.8 346.557 170.817 345.403 170.817 337.832ZM163.599 333.086C161.344 333.086 160.391 336.032 160.391 337.832C160.391 339.632 161.344 342.578 163.599 342.578C165.853 342.578 166.806 339.632 166.806 337.832C166.806 336.032 165.853 333.086 163.599 333.086Z" fill="white"/>
<path d="M175.354 341.889L175.356 341.887C176.657 339.258 176.937 336.253 176.937 333.482C176.937 329.87 175.955 326.394 173.589 323.535C173.995 322.23 174.202 320.866 174.202 319.494C174.202 317.523 173.739 316.507 172.871 314.805L172.732 314.532H172.426C170.437 314.532 168.77 314.718 167.211 315.209C165.714 315.68 164.339 316.426 162.888 317.524C160.628 317.009 158.293 316.772 155.978 316.772C153.41 316.772 150.845 317.026 148.342 317.593C146.872 316.483 145.487 315.72 143.979 315.235C142.408 314.729 140.729 314.532 138.717 314.532H138.41L138.271 314.807C137.414 316.506 136.941 317.522 136.941 319.494C136.941 320.864 137.14 322.252 137.553 323.585C135.181 326.405 133.987 329.851 133.987 333.482C133.987 336.282 134.485 339.304 135.807 341.892L135.808 341.894C137.629 345.424 141.077 347.088 144.814 347.879C148.303 348.617 152.136 348.612 155.312 348.608C155.534 348.608 155.753 348.608 155.969 348.608C156.119 348.608 156.271 348.608 156.424 348.608C159.579 348.61 163.345 348.612 166.75 347.848C170.33 347.046 173.604 345.377 175.354 341.889ZM147.544 343.078C148.929 343.078 149.868 342.163 150.433 341.118C150.998 340.074 151.252 338.803 151.252 337.832C151.252 336.861 150.998 335.59 150.433 334.546C149.868 333.501 148.929 332.586 147.544 332.586C146.159 332.586 145.22 333.501 144.655 334.546C144.09 335.59 143.837 336.861 143.837 337.832C143.837 338.803 144.09 340.074 144.655 341.118C145.22 342.163 146.159 343.078 147.544 343.078ZM164.394 331.217C166.29 331.217 167.756 331.985 168.756 333.178C169.764 334.38 170.317 336.04 170.317 337.832C170.317 339.645 169.898 341.039 169.204 342.119C168.51 343.2 167.518 343.999 166.321 344.585C163.907 345.766 160.716 346.057 157.656 346.057H153.443C150.397 346.057 147.21 345.764 144.797 344.582C143.6 343.995 142.608 343.196 141.913 342.115C141.219 341.036 140.799 339.643 140.799 337.832C140.799 336.04 141.352 334.38 142.36 333.178C143.36 331.985 144.826 331.217 146.723 331.217C148.016 331.217 149.265 331.4 150.566 331.589C150.889 331.636 151.215 331.684 151.545 331.729C152.885 331.931 154.211 332.01 155.558 332.01C156.913 332.01 158.24 331.931 159.571 331.729C159.929 331.681 160.279 331.63 160.625 331.58C161.911 331.394 163.128 331.217 164.394 331.217ZM163.599 332.586C162.213 332.586 161.275 333.501 160.71 334.546C160.145 335.59 159.891 336.861 159.891 337.832C159.891 338.803 160.145 340.074 160.71 341.118C161.275 342.163 162.213 343.078 163.599 343.078C164.984 343.078 165.923 342.163 166.488 341.118C167.053 340.074 167.306 338.803 167.306 337.832C167.306 336.861 167.053 335.59 166.488 334.546C165.923 333.501 164.984 332.586 163.599 332.586Z" stroke="white" stroke-opacity="0.5"/>
</g>
<defs>
<filter id="filter0_ddddii" x="-177" y="0" width="718.263" height="712.169" filterUnits="userSpaceOnUse" color-interpolation-filters="sRGB">
<feFlood flood-opacity="0" result="BackgroundImageFix"/>
<feColorMatrix in="SourceAlpha" type="matrix" values="0 0 0 0 0 0 0 0 0 0 0 0 0 0 0 0 0 0 127 0" result="hardAlpha"/>
<feOffset dx="100" dy="100"/>
<feGaussianBlur stdDeviation="125"/>
<feColorMatrix type="matrix" values="0 0 0 0 0.796078 0 0 0 0 0.819608 0 0 0 0 0.847059 0 0 0 0.9 0"/>
<feBlend mode="normal" in2="BackgroundImageFix" result="effect1_dropShadow"/>
<feColorMatrix in="SourceAlpha" type="matrix" values="0 0 0 0 0 0 0 0 0 0 0 0 0 0 0 0 0 0 127 0" result="hardAlpha"/>
<feOffset dx="-100" dy="-100"/>
<feGaussianBlur stdDeviation="100"/>
<feColorMatrix type="matrix" values="0 0 0 0 1 0 0 0 0 1 0 0 0 0 1 0 0 0 0.9 0"/>
<feBlend mode="normal" in2="effect1_dropShadow" result="effect2_dropShadow"/>
<feColorMatrix in="SourceAlpha" type="matrix" values="0 0 0 0 0 0 0 0 0 0 0 0 0 0 0 0 0 0 127 0" result="hardAlpha"/>
<feOffset dx="100" dy="-100"/>
<feGaussianBlur stdDeviation="100"/>
<feColorMatrix type="matrix" values="0 0 0 0 0.796078 0 0 0 0 0.819608 0 0 0 0 0.847059 0 0 0 0.2 0"/>
<feBlend mode="normal" in2="effect2_dropShadow" result="effect3_dropShadow"/>
<feColorMatrix in="SourceAlpha" type="matrix" values="0 0 0 0 0 0 0 0 0 0 0 0 0 0 0 0 0 0 127 0" result="hardAlpha"/>
<feOffset dx="-100" dy="100"/>
<feGaussianBlur stdDeviation="100"/>
<feColorMatrix type="matrix" values="0 0 0 0 0.796078 0 0 0 0 0.819608 0 0 0 0 0.847059 0 0 0 0.2 0"/>
<feBlend mode="normal" in2="effect3_dropShadow" result="effect4_dropShadow"/>
<feBlend mode="normal" in="SourceGraphic" in2="effect4_dropShadow" result="shape"/>
<feColorMatrix in="SourceAlpha" type="matrix" values="0 0 0 0 0 0 0 0 0 0 0 0 0 0 0 0 0 0 127 0" result="hardAlpha"/>
<feOffset dx="-4" dy="-4"/>
<feGaussianBlur stdDeviation="2.5"/>
<feComposite in2="hardAlpha" operator="arithmetic" k2="-1" k3="1"/>
<feColorMatrix type="matrix" values="0 0 0 0 0.796078 0 0 0 0 0.819608 0 0 0 0 0.847059 0 0 0 0.5 0"/>
<feBlend mode="normal" in2="shape" result="effect5_innerShadow"/>
<feColorMatrix in="SourceAlpha" type="matrix" values="0 0 0 0 0 0 0 0 0 0 0 0 0 0 0 0 0 0 127 0" result="hardAlpha"/>
<feOffset dx="4" dy="4"/>
<feGaussianBlur stdDeviation="2.5"/>
<feComposite in2="hardAlpha" operator="arithmetic" k2="-1" k3="1"/>
<feColorMatrix type="matrix" values="0 0 0 0 1 0 0 0 0 1 0 0 0 0 1 0 0 0 0.3 0"/>
<feBlend mode="normal" in2="effect5_innerShadow" result="effect6_innerShadow"/>
</filter>
<filter id="filter1_d" x="131.487" y="312.032" width="51.9497" height="43.0766" filterUnits="userSpaceOnUse" color-interpolation-filters="sRGB">
<feFlood flood-opacity="0" result="BackgroundImageFix"/>
<feColorMatrix in="SourceAlpha" type="matrix" values="0 0 0 0 0 0 0 0 0 0 0 0 0 0 0 0 0 0 127 0" result="hardAlpha"/>
<feOffset dx="2" dy="2"/>
<feGaussianBlur stdDeviation="2"/>
<feColorMatrix type="matrix" values="0 0 0 0 0 0 0 0 0 0 0 0 0 0 0 0 0 0 0.25 0"/>
<feBlend mode="normal" in2="BackgroundImageFix" result="effect1_dropShadow"/>
<feBlend mode="normal" in="SourceGraphic" in2="effect1_dropShadow" result="shape"/>
</filter>
</defs>
</svg>
