<svg width="63" height="69" viewBox="0 0 63 69" fill="none" xmlns="http://www.w3.org/2000/svg">
<path d="M11.46 68.08C7.82 68.08 5.06 67.08 3.18 65.08C1.34 63.08 0.42 60.56 0.42 57.52C0.42 55.36 0.86 53.2 1.74 51.04C2.66 48.84 3.96 46.92 5.64 45.28C7.32 43.64 9.28 42.54 11.52 41.98C10.28 41.1 9.36 40.04 8.76 38.8C8.16 37.52 7.86 36.18 7.86 34.78C7.86 32.7 8.42 30.66 9.54 28.66C10.7 26.66 12.28 25.04 14.28 23.8C16.32 22.52 18.56 21.88 21 21.88C23.52 21.88 25.58 22.54 27.18 23.86C28.78 25.18 29.58 27.02 29.58 29.38C29.58 31.14 29.14 32.62 28.26 33.82C27.38 35.02 26.34 35.62 25.14 35.62C24.06 35.62 23.12 35.08 22.32 34C23.04 33.76 23.66 33.1 24.18 32.02C24.7 30.94 24.96 29.86 24.96 28.78C24.96 27.62 24.64 26.78 24 26.26C23.36 25.7 22.58 25.42 21.66 25.42C20.5 25.42 19.44 25.84 18.48 26.68C17.56 27.48 16.84 28.54 16.32 29.86C15.8 31.14 15.54 32.48 15.54 33.88C15.54 35.8 16.04 37.5 17.04 38.98C18.04 40.42 19.56 41.4 21.6 41.92C19.56 42.36 17.72 43.36 16.08 44.92C14.44 46.48 13.16 48.3 12.24 50.38C11.32 52.42 10.86 54.38 10.86 56.26C10.86 58.06 11.32 59.52 12.24 60.64C13.2 61.76 14.64 62.32 16.56 62.32C18.56 62.32 20.64 61.78 22.8 60.7C25 59.58 26.62 58.08 27.66 56.2L29.04 56.8C27.48 60.24 25.08 62.98 21.84 65.02C18.6 67.06 15.14 68.08 11.46 68.08ZM38.6391 67.36C36.3591 67.36 34.4591 66.58 32.9391 65.02C31.4191 63.46 30.6591 61.02 30.6591 57.7C30.6591 54.74 31.2391 51.64 32.3991 48.4C33.5991 45.12 35.3591 42.36 37.6791 40.12C40.0391 37.84 42.8391 36.7 46.0791 36.7C47.7191 36.7 48.9391 36.98 49.7391 37.54C50.5391 38.1 50.9391 38.84 50.9391 39.76V40L53.8791 26.2L62.7591 25L55.8591 57.4C55.6991 58 55.6191 58.58 55.6191 59.14C55.6191 60.74 56.4391 61.54 58.0791 61.54C58.7991 61.54 59.4391 61.42 59.9991 61.18C59.8391 63.18 59.1191 64.72 57.8391 65.8C56.5991 66.84 55.1191 67.36 53.3991 67.36C51.7991 67.36 50.4391 66.96 49.3191 66.16C48.2391 65.32 47.5191 64.06 47.1591 62.38C44.7591 65.7 41.9191 67.36 38.6391 67.36ZM42.5391 61.54C43.4191 61.54 44.2991 61.16 45.1791 60.4C46.0991 59.64 46.7791 58.58 47.2191 57.22L47.4591 56.26L50.3991 42.52C50.0391 41.12 49.2191 40.42 47.9391 40.42C46.3391 40.42 44.8991 41.36 43.6191 43.24C42.3391 45.08 41.3391 47.32 40.6191 49.96C39.8991 52.56 39.5391 54.86 39.5391 56.86C39.5391 58.86 39.8191 60.14 40.3791 60.7C40.9791 61.26 41.6991 61.54 42.5391 61.54Z" fill="#42B9FC"/>
</svg>
